<?xml version="1.0" encoding="utf-8"?>
<!-- Generator: Adobe Illustrator 19.2.1, SVG Export Plug-In . SVG Version: 6.00 Build 0)  -->
<svg version="1.1" id="Layer_1" xmlns="http://www.w3.org/2000/svg" xmlns:xlink="http://www.w3.org/1999/xlink" x="0px" y="0px"
	 viewBox="0 0 182 57" style="enable-background:new 0 0 182 57;" xml:space="preserve">
<style type="text/css">
	.st0{fill:#86BC25;}
	.st1{fill:#FFFFFF;}
</style>
<g>
	<path class="st0" d="M172.4,29.2c0-2.7,2.2-4.8,4.8-4.8c2.7,0,4.8,2.2,4.8,4.8c0,2.7-2.2,4.8-4.8,4.8
		C174.5,34,172.4,31.9,172.4,29.2"/>
	<path class="st1" d="M27.6,16.1c0,5.6-1.5,9.9-4.5,12.9c-3,3-7.2,4.5-12.6,4.5H0V0.1h11.3c5.2,0,9.3,1.4,12.1,4.1
		C26.2,7,27.6,10.9,27.6,16.1 M18.5,16.4c0-3.1-0.6-5.3-1.8-6.8c-1.2-1.5-3-2.2-5.4-2.2H8.8v18.7h2c2.7,0,4.6-0.8,5.9-2.4
		C17.9,22.1,18.5,19.7,18.5,16.4"/>
	<rect x="56.8" class="st1" width="8.4" height="33.5"/>
	<path class="st1" d="M92.7,21c0,4.1-1.1,7.2-3.2,9.5c-2.1,2.3-5.1,3.4-9,3.4c-3.7,0-6.6-1.2-8.8-3.5c-2.2-2.3-3.3-5.5-3.3-9.4
		c0-4.1,1.1-7.2,3.2-9.5c2.1-2.2,5.1-3.4,9-3.4c2.4,0,4.5,0.5,6.3,1.6c1.8,1,3.2,2.5,4.2,4.5C92.2,16.1,92.7,18.4,92.7,21 M77,21
		c0,2.1,0.3,3.8,0.8,4.9c0.6,1.1,1.5,1.7,2.8,1.7c1.3,0,2.2-0.6,2.8-1.7c0.5-1.1,0.8-2.7,0.8-4.9c0-2.1-0.3-3.7-0.8-4.8
		c-0.5-1.1-1.5-1.6-2.8-1.6c-1.3,0-2.2,0.5-2.8,1.6C77.3,17.3,77,18.9,77,21"/>
	<rect x="96.1" y="8.6" class="st1" width="8.4" height="24.9"/>
	<rect x="96.1" class="st1" width="8.4" height="5.6"/>
	<path class="st1" d="M121.4,27.1c1.1,0,2.5-0.3,4.1-0.9v6.3c-1.1,0.5-2.2,0.9-3.2,1.1c-1,0.2-2.2,0.3-3.6,0.3
		c-2.8,0-4.8-0.7-6.1-2.1c-1.2-1.4-1.9-3.6-1.9-6.5V15h-2.9V8.6h2.9V2.3l8.4-1.5v7.8h5.4V15h-5.4v9.7
		C119.2,26.3,119.9,27.1,121.4,27.1"/>
	<path class="st1" d="M140.8,27.1c1.1,0,2.5-0.3,4.1-0.9v6.3c-1.1,0.5-2.2,0.9-3.2,1.1c-1,0.2-2.2,0.3-3.6,0.3
		c-2.8,0-4.8-0.7-6.1-2.1c-1.2-1.4-1.9-3.6-1.9-6.5V15h-2.9V8.6h2.9V2.2l8.4-1.4v7.8h5.4V15h-5.4v9.7
		C138.6,26.3,139.3,27.1,140.8,27.1"/>
	<path class="st1" d="M167.3,11.1c-2-2-4.8-2.9-8.5-2.9c-3.8,0-6.8,1.1-8.9,3.4c-2.1,2.2-3.1,5.5-3.1,9.7c0,4.1,1.1,7.2,3.4,9.4
		c2.2,2.2,5.4,3.3,9.4,3.3c1.9,0,3.6-0.1,5-0.4c1.4-0.3,2.7-0.7,4-1.4l-1.3-5.6c-1,0.4-1.9,0.7-2.7,0.9c-1.2,0.3-2.6,0.4-4.1,0.4
		c-1.6,0-2.9-0.4-3.8-1.2c-0.9-0.8-1.4-1.9-1.5-3.3h15v-3.8C170.3,15.9,169.3,13.1,167.3,11.1 M155.5,18c0.1-1.4,0.5-2.4,1.2-3
		c0.7-0.6,1.5-1,2.5-1c1.1,0,1.9,0.4,2.6,1.1c0.6,0.7,1,1.7,1,2.9H155.5z"/>
	<path class="st1" d="M50.6,11.1c-2-2-4.8-2.9-8.5-2.9c-3.8,0-6.8,1.1-8.9,3.4c-2.1,2.2-3.1,5.5-3.1,9.7c0,4.1,1.1,7.2,3.4,9.4
		c2.2,2.2,5.4,3.3,9.4,3.3c1.9,0,3.6-0.1,5-0.4c1.4-0.3,2.7-0.7,4-1.4l-1.3-5.6c-1,0.4-1.9,0.7-2.7,0.9c-1.2,0.3-2.6,0.4-4.1,0.4
		c-1.6,0-2.9-0.4-3.8-1.2c-0.9-0.8-1.4-1.9-1.5-3.3h15v-3.8C53.6,15.9,52.6,13.1,50.6,11.1 M38.8,18c0.1-1.4,0.5-2.4,1.2-3
		c0.7-0.6,1.5-1,2.5-1c1.1,0,1.9,0.4,2.6,1.1c0.6,0.7,1,1.7,1,2.9H38.8z"/>
	<g>
		<g>
			<rect x="84.8" y="47.3" class="st1" width="11.7" height="2.5"/>
			<path class="st1" d="M18.6,55.9l9.9,0c2.1,0,3.2-1.1,3.2-3V42.6H18.6V55.9z M21.3,45h7.6v7.4c0,0.7-0.4,1.1-1.1,1.1h-6.5V45z"/>
			<rect x="113.3" y="42.6" class="st1" width="2.4" height="6.1"/>
			<rect x="117.7" y="42.6" class="st1" width="2.4" height="6.1"/>
			<rect x="1.5" y="42.3" class="st1" width="10.1" height="2.3"/>
			<rect x="12.6" y="41.1" class="st1" width="1.6" height="3.5"/>
			<rect x="15.1" y="41.1" class="st1" width="1.6" height="3.5"/>
			<path class="st1" d="M6.4,49.5c-0.3,3.1-2,4.5-4.9,4.8v2c3.1-0.1,7.2-1.3,7.6-6.8h5v-2.4H0v2.4H6.4z"/>
		</g>
		<path class="st1" d="M122.9,42.6v2.5c0,5.6-2.5,8.3-7.9,8.5v2.3h0.1c6.8,0,10.5-3.7,10.5-10.7v-2.5L122.9,42.6z"/>
		<path class="st1" d="M48.3,41.7h-2.9c-1,3.4-3.7,5.7-9.3,5.7h-2v2.4h2.2c1.6,0,3-0.1,4.2-0.4v7h2.7v-7.9
			C45.9,47.1,47.6,44.8,48.3,41.7z"/>
		<path class="st1" d="M103.9,51.2l-2-3.9h-2.8l4.5,9.1h2.8l-1.5-3c4.1-2.2,6.1-5.4,6.2-9.7l0-1.1H97.5V45h10.8
			C107.9,47.8,106.4,49.8,103.9,51.2z"/>
		<path class="st1" d="M72.7,56.3V49c0.7,0.5,1.6,0.7,2.8,0.7h7.1v-2.5h-7.2c-1.8,0-2.7-0.9-2.7-2.6v-3.1H70v14.6H72.7z"/>
		<path class="st1" d="M53.1,56.3V49c0.7,0.5,1.6,0.7,2.8,0.7h7.1v-2.5h-7.2c-1.8,0-2.7-0.9-2.7-2.6v-3.1h-2.7v14.6H53.1z"/>
	</g>
</g>
</svg>
