<?xml version="1.0" encoding="utf-8"?>
<!-- Generator: Adobe Illustrator 20.0.0, SVG Export Plug-In . SVG Version: 6.00 Build 0)  -->
<svg version="1.1" id="レイヤー_1" xmlns="http://www.w3.org/2000/svg" xmlns:xlink="http://www.w3.org/1999/xlink" x="0px"
	 y="0px" viewBox="0 0 331.9 62.4" style="enable-background:new 0 0 331.9 62.4;" xml:space="preserve">
<style type="text/css">
	.st0{fill:#1D5632;}
	.st1{fill:#4E9D2D;}
	.st2{fill:#144733;}
</style>	
<g>
	<path class="st0" d="M23.5,26.9c4.4,7.3,8.9,14.8,13.7,22.4c0.6-1,1.5-2.5,2.7-4.4c1.2-1.9,2.5-4.1,4.1-6.7c1.5-2.5,3.2-5.2,5-8.1
		c1.8-2.9,3.6-5.9,5.4-8.9c1.8-3,3.6-5.9,5.4-8.8c1.8-2.9,3.5-5.6,5-8.1H66c0.7,5.2,1.3,10.3,1.9,15.1c0.6,4.9,1.2,9.7,1.8,14.4
		c0.6,4.7,1.2,9.4,1.9,14c0.6,4.6,1.3,9.2,2,13.7c-0.7-0.1-1.5-0.2-2.2-0.2c-0.7,0-1.4,0-2.2,0c-0.7,0-1.5,0-2.2,0
		c-0.7,0-1.4,0.1-2.2,0.2c-0.7-7.2-1.4-14.3-2-21.1c-0.7-6.8-1.5-13.7-2.5-20.8h-0.2c-4.3,6.9-8.5,13.7-12.6,20.4
		c-4.1,6.8-8,13.9-11.7,21.3H35c-3.7-6.9-7.6-13.7-11.6-20.6c-4.1-6.9-8.1-13.9-12.2-21.1h-0.2c-0.4,3.4-0.9,7-1.4,11
		c-0.5,3.9-1,7.8-1.4,11.7C7.6,46.2,7.3,49.8,7,53.2c-0.3,3.4-0.5,6.2-0.5,8.4c-1-0.1-2.1-0.2-3.2-0.2c-1.2,0-2.3,0.1-3.2,0.2
		c0.8-4.4,1.6-9.1,2.5-14c0.9-4.9,1.7-9.8,2.5-14.8c0.8-5,1.5-9.8,2.2-14.7C7.9,13.3,8.5,8.8,9,4.4h1.6
		C14.8,12.1,19.2,19.6,23.5,26.9z"/>
	<path class="st0" d="M84.4,27.7c3.6-3.8,8.9-5.7,15.8-5.7c3.3,0,6.1,0.4,8.5,1.3c2.4,0.9,4.4,2.1,6,3.6c1.6,1.5,2.8,3.3,3.6,5.3
		c0.8,2,1.2,4.2,1.2,6.4c0,0.5,0,1.1,0,1.6c0,0.5-0.1,1-0.1,1.6c-3.3-0.1-6.6-0.1-9.9-0.2c-3.3-0.1-6.6-0.1-9.9-0.1
		c-2,0-4.1,0-6.1,0.1c-2,0.1-4,0.1-6.1,0.2c-0.1,0.3-0.1,0.7-0.1,1.2v1.1c0,2.1,0.4,4.1,1.1,6c0.7,1.9,1.7,3.4,3.1,4.8
		c1.4,1.3,3,2.4,5,3.2c2,0.8,4.3,1.2,6.9,1.2c1.2,0,2.5-0.1,3.8-0.4c1.3-0.3,2.6-0.7,3.8-1.2c1.2-0.5,2.4-1.1,3.5-1.8
		c1.1-0.7,2-1.5,2.8-2.3l0.5,0.2l-0.6,4c-1.9,1.3-4.2,2.4-6.9,3.3c-2.8,0.9-5.6,1.4-8.6,1.4c-3.3,0-6.4-0.4-9.1-1.3
		c-2.8-0.9-5.1-2.2-7.1-3.9c-2-1.7-3.6-3.7-4.6-6.1c-1.1-2.3-1.6-4.9-1.6-7.6C79,36.7,80.8,31.5,84.4,27.7z M94.6,26
		c-1.6,0.9-2.9,2.1-3.9,3.5c-1,1.4-1.8,2.9-2.3,4.6c-0.5,1.7-0.9,3.2-1,4.7c1.9,0.1,3.9,0.1,6,0.2c2.1,0.1,4.1,0.1,6.1,0.1
		c2,0,4.1,0,6.2-0.1c2.1-0.1,4.1-0.1,6.1-0.2c0-1.5-0.1-3-0.4-4.7c-0.3-1.6-0.8-3.2-1.7-4.6c-0.8-1.4-2-2.6-3.5-3.5
		c-1.5-0.9-3.4-1.4-5.8-1.4C98.1,24.6,96.2,25,94.6,26z"/>
	<path class="st1" d="M158.2,53.8c-0.5,0.9-1.2,1.8-2,2.8c-0.8,1-1.9,1.9-3.2,2.8c-1.3,0.9-2.8,1.6-4.5,2.1c-1.7,0.5-3.7,0.8-6,0.8
		c-2.4,0-4.7-0.4-6.9-1.1c-2.3-0.7-4.3-1.9-6-3.5c-1.8-1.6-3.2-3.7-4.3-6.2c-1.1-2.5-1.6-5.6-1.6-9.1c0-3.5,0.6-6.5,1.8-9.1
		c1.2-2.6,2.7-4.7,4.6-6.4c1.9-1.7,4-3,6.4-3.8c2.4-0.8,4.8-1.3,7.2-1.3c6.9,0,11.6,2.7,14.3,8.2h0.2v-8c0-2.1,0-4.1,0-6.2
		c0-2.1-0.1-4.1-0.1-6c0-1.9-0.1-3.7-0.1-5.4c0-1.7-0.1-3.2-0.1-4.5c0.7,0.1,1.5,0.2,2.1,0.3c0.7,0.1,1.4,0.1,2,0.1
		c0.7,0,1.3,0,2-0.1c0.7-0.1,1.4-0.2,2.2-0.3c-0.2,1.7-0.3,4.3-0.5,7.6c-0.1,3.3-0.2,6.9-0.3,10.9c-0.1,4-0.2,8.1-0.2,12.2
		c-0.1,4.2-0.1,8-0.1,11.5c0,3.8,0,7.1,0.1,10.1c0.1,3,0.1,6.1,0.2,9.2c-1.2-0.1-2.4-0.2-3.6-0.2c-1.1,0-2.3,0.1-3.5,0.2l0.3-7.8
		H158.2z M133,51.1c0.8,2.1,1.8,3.8,3,5.1c1.2,1.3,2.6,2.2,4.1,2.7c1.5,0.5,3.1,0.7,4.5,0.7c2.4,0,4.5-0.5,6.2-1.6
		c1.7-1.1,3.2-2.4,4.3-4.2c1.1-1.7,2-3.7,2.5-5.8c0.5-2.2,0.8-4.4,0.8-6.5c0-5.2-1.1-9.2-3.4-12c-2.3-2.7-5.7-4.1-10.1-4.1
		c-2.2,0-4.2,0.4-5.8,1.3c-1.6,0.9-3,2.2-4.1,3.8c-1.1,1.6-1.9,3.5-2.4,5.6c-0.5,2.2-0.8,4.4-0.8,6.9C131.9,46.3,132.2,49,133,51.1z
		"/>
	<path class="st2" d="M177.9,16c-0.2-3.5-0.3-7-0.5-10.6c1.5,0.1,3,0.2,4.5,0.3c1.5,0.1,3,0.1,4.5,0.1c0.7,0,1.6,0,2.7-0.1
		c1.1-0.1,2.1-0.1,3.2-0.1c1.1,0,2.1-0.1,3.1-0.1c1-0.1,1.8-0.1,2.5-0.1c0.9,0,2.1,0,3.4,0.1c1.4,0.1,2.8,0.2,4.3,0.5
		c1.5,0.3,3,0.7,4.5,1.2c1.5,0.5,2.8,1.3,4,2.4c1.2,1,2.2,2.3,2.9,3.9c0.7,1.6,1.1,3.5,1.1,5.8c0,3.6-0.9,6.5-2.6,8.7
		c-1.8,2.2-3.9,4-6.5,5.2c-2.6,1.3-5.3,2.1-8.2,2.5c-2.9,0.4-5.4,0.7-7.7,0.7c-1.4,0-2.7,0-3.9,0c-1.2,0-2.4-0.1-3.6-0.2v4.5
		c0,3.6,0.1,7.1,0.2,10.6c0.2,3.5,0.3,6.9,0.5,10.3c-1.4-0.1-2.9-0.2-4.5-0.2c-1.6,0-3.1,0.1-4.5,0.2c0.2-3.4,0.4-6.8,0.5-10.3
		c0.2-3.5,0.2-7,0.2-10.6v-14C178.2,23,178.1,19.5,177.9,16z M192.4,33.4c1.9,0,3.9-0.2,5.9-0.6c2-0.4,3.9-1.1,5.6-2.1
		c1.7-1,3.1-2.4,4.2-4.2c1.1-1.8,1.6-4,1.6-6.8c0-2.3-0.4-4.2-1.1-5.7c-0.7-1.5-1.8-2.6-3.1-3.4c-1.3-0.8-3-1.4-4.9-1.7
		c-1.9-0.3-4.1-0.4-6.5-0.4h-8.4v24.2C187.9,33.2,190.1,33.4,192.4,33.4z"/>
	<path class="st2" d="M222.8,27.7c3.6-3.8,8.9-5.7,15.8-5.7c3.3,0,6.1,0.4,8.5,1.3c2.4,0.9,4.4,2.1,6,3.6c1.6,1.5,2.8,3.3,3.6,5.3
		c0.8,2,1.2,4.2,1.2,6.4c0,0.5,0,1.1,0,1.6c0,0.5-0.1,1-0.1,1.6c-3.3-0.1-6.7-0.1-9.9-0.2c-3.3-0.1-6.6-0.1-9.9-0.1
		c-2,0-4.1,0-6.1,0.1c-2,0.1-4,0.1-6.1,0.2c-0.1,0.3-0.1,0.7-0.1,1.2v1.1c0,2.1,0.4,4.1,1.1,6c0.7,1.9,1.7,3.4,3.1,4.8
		c1.4,1.3,3,2.4,5,3.2c2,0.8,4.3,1.2,6.9,1.2c1.2,0,2.5-0.1,3.8-0.4c1.3-0.3,2.6-0.7,3.8-1.2c1.2-0.5,2.4-1.1,3.5-1.8
		c1.1-0.7,2-1.5,2.8-2.3l0.5,0.2l-0.6,4c-1.9,1.3-4.2,2.4-6.9,3.3c-2.8,0.9-5.6,1.4-8.6,1.4c-3.3,0-6.4-0.4-9.1-1.3
		c-2.8-0.9-5.1-2.2-7.1-3.9c-2-1.7-3.6-3.7-4.6-6.1c-1.1-2.3-1.6-4.9-1.6-7.6C217.4,36.7,219.2,31.5,222.8,27.7z M233,26
		c-1.6,0.9-2.9,2.1-3.9,3.5c-1,1.4-1.8,2.9-2.3,4.6c-0.5,1.7-0.9,3.2-1,4.7c1.9,0.1,3.9,0.1,6,0.2c2.1,0.1,4.1,0.1,6.1,0.1
		c2,0,4.1,0,6.2-0.1c2.1-0.1,4.1-0.1,6.1-0.2c0-1.5-0.1-3-0.4-4.7c-0.3-1.6-0.8-3.2-1.7-4.6c-0.8-1.4-2-2.6-3.5-3.5
		c-1.5-0.9-3.4-1.4-5.8-1.4C236.6,24.6,234.6,25,233,26z"/>
	<path class="st2" d="M266.9,27.7c3.6-3.8,8.9-5.7,15.8-5.7c3.3,0,6.1,0.4,8.5,1.3c2.4,0.9,4.4,2.1,6,3.6c1.6,1.5,2.8,3.3,3.6,5.3
		c0.8,2,1.2,4.2,1.2,6.4c0,0.5,0,1.1,0,1.6c0,0.5-0.1,1-0.1,1.6c-3.3-0.1-6.7-0.1-9.9-0.2c-3.3-0.1-6.6-0.1-9.9-0.1
		c-2,0-4.1,0-6.1,0.1c-2,0.1-4,0.1-6.1,0.2c-0.1,0.3-0.1,0.7-0.1,1.2v1.1c0,2.1,0.4,4.1,1.1,6c0.7,1.9,1.7,3.4,3.1,4.8
		c1.4,1.3,3,2.4,5,3.2c2,0.8,4.3,1.2,6.9,1.2c1.2,0,2.5-0.1,3.8-0.4c1.3-0.3,2.6-0.7,3.8-1.2c1.2-0.5,2.4-1.1,3.5-1.8
		c1.1-0.7,2-1.5,2.8-2.3l0.5,0.2l-0.6,4c-1.9,1.3-4.2,2.4-6.9,3.3c-2.8,0.9-5.6,1.4-8.6,1.4c-3.3,0-6.4-0.4-9.1-1.3
		c-2.8-0.9-5.1-2.2-7.1-3.9c-2-1.7-3.6-3.7-4.6-6.1c-1.1-2.3-1.6-4.9-1.6-7.6C261.5,36.7,263.3,31.5,266.9,27.7z M277.1,26
		c-1.6,0.9-2.9,2.1-3.9,3.5c-1,1.4-1.8,2.9-2.3,4.6c-0.5,1.7-0.8,3.2-1,4.7c1.9,0.1,3.9,0.1,6,0.2c2.1,0.1,4.1,0.1,6.1,0.1
		c2,0,4.1,0,6.2-0.1c2.1-0.1,4.1-0.1,6.1-0.2c0-1.5-0.1-3-0.4-4.7c-0.3-1.6-0.8-3.2-1.7-4.6c-0.8-1.4-2-2.6-3.5-3.5
		c-1.5-0.9-3.4-1.4-5.8-1.4C280.6,24.6,278.7,25,277.1,26z"/>
	<path class="st1" d="M328.8,28.6c-0.9-0.3-1.8-0.4-2.7-0.4c-1.5,0-2.8,0.3-4,0.9c-1.2,0.6-2.2,1.4-3,2.4c-0.8,1-1.4,2.2-1.9,3.6
		c-0.4,1.4-0.6,2.9-0.6,4.4v9c0,3.6,0,6.4,0,8.4c0,1.9,0.1,3.5,0.3,4.7c-1.2-0.1-2.5-0.2-3.7-0.2c-1.4,0-2.7,0.1-3.9,0.2
		c0.2-1.8,0.3-4.4,0.3-7.6c0-3.2,0-7.1,0-11.7v-2.6c0-2.1,0-4.6,0-7.3c0-2.8-0.1-6-0.3-9.6c0.7,0.1,1.3,0.2,1.9,0.3
		c0.6,0.1,1.3,0.1,1.9,0.1c0.6,0,1.1,0,1.8-0.1c0.6-0.1,1.3-0.2,1.9-0.3c-0.2,2-0.4,3.5-0.4,4.7c0,1.1,0,2.2,0,3.3l0.2,0.1
		c3.7-5.9,7.7-8.8,12.2-8.8c0.6,0,1,0,1.4,0.1c0.4,0.1,0.9,0.2,1.5,0.4c-0.3,0.7-0.5,1.6-0.6,3c-0.1,1.3-0.1,2.5-0.1,3.6l-0.6,0.4
		C330.3,29.1,329.7,28.8,328.8,28.6z"/>
</g>
</svg>
